<svg viewBox="0 0 628 525" fill="none" xmlns="http://www.w3.org/2000/svg" class="" >
<g filter="url(#filter0_d_4042_865)">
<path d="M313.595 71.457L75.457 448.509" stroke="currentColor" stroke-width="32"/>
<path d="M551.733 448.51H75.457" stroke="currentColor" stroke-width="32"/>
<path d="M313.594 76.418L551.732 448.509" stroke="currentColor" stroke-width="32"/>
<path d="M313.953 2.5C352.037 2.5 382.91 33.373 382.91 71.457C382.91 109.541 352.037 140.414 313.953 140.414C275.869 140.414 244.996 109.541 244.996 71.457C244.996 33.373 275.869 2.5 313.953 2.5Z" fill="currentColor" stroke="currentColor"/>
<path d="M75.457 375.797C113.541 375.797 144.414 406.67 144.414 444.754C144.414 482.838 113.541 513.711 75.457 513.711C37.373 513.711 6.5 482.838 6.5 444.754C6.5 406.67 37.373 375.797 75.457 375.797Z" fill="currentColor" stroke="currentColor"/>
<path d="M552.445 375.797C590.529 375.797 621.402 406.67 621.402 444.754C621.402 482.838 590.529 513.711 552.445 513.711C514.361 513.711 483.488 482.838 483.488 444.754C483.488 406.67 514.361 375.797 552.445 375.797Z" fill="currentColor" stroke="currentColor"/>
</g>
<defs>
<filter id="filter0_d_4042_865" x="0" y="0" width="627.902" height="524.211" filterUnits="userSpaceOnUse" color-interpolation-filters="sRGB">
<feFlood flood-opacity="0" result="BackgroundImageFix"/>
<feColorMatrix in="SourceAlpha" type="matrix" values="0 0 0 0 0 0 0 0 0 0 0 0 0 0 0 0 0 0 127 0" result="hardAlpha"/>
<feOffset dy="4"/>
<feGaussianBlur stdDeviation="3"/>
<feColorMatrix type="matrix" values="0 0 0 0 0 0 0 0 0 0 0 0 0 0 0 0 0 0 0.1 0"/>
<feBlend mode="normal" in2="BackgroundImageFix" result="effect1_dropShadow_4042_865"/>
<feBlend mode="normal" in="SourceGraphic" in2="effect1_dropShadow_4042_865" result="shape"/>
</filter>
</defs>
</svg>
